<?xml version="1.0" encoding="UTF-8" standalone="no"?>
<!-- Created with Inkscape (http://www.inkscape.org/) -->

<svg
   version="1.1"
   id="svg1"
   width="1939.5601"
   height="522.40802"
   viewBox="0 0 1939.5601 522.40802"
   xmlns="http://www.w3.org/2000/svg"
   xmlns:svg="http://www.w3.org/2000/svg">
  <defs
     id="defs1" />
  <g
     id="g1"
     transform="translate(0,-0.00534306)">
    <g
       id="group-R5">
      <path
         id="path2"
         d="M 4056.69,3590.73 V 2282.81 h 801.56 V 2001.24 H 3752.42 v 1589.49 h 304.27"
         style="fill:#2c3a92;fill-opacity:1;fill-rule:nonzero;stroke:none"
         transform="matrix(0.13333333,0,0,-0.13333333,0,522.41333)" />
      <path
         id="path3"
         d="m 5580.25,2932.22 c -88.55,0 -165.76,-31.79 -227.07,-97.64 -61.31,-65.84 -90.83,-145.32 -90.83,-242.97 0,-97.63 29.52,-177.11 90.83,-242.96 61.31,-65.84 138.52,-97.64 227.07,-97.64 88.56,0 163.49,31.8 224.8,97.64 61.31,65.85 93.1,145.33 93.1,242.96 0,97.65 -31.79,177.13 -93.1,242.97 -61.31,65.85 -136.24,97.64 -224.8,97.64 z m 322.44,156.67 V 3182 h 281.57 V 2001.24 h -281.57 v 93.09 c -104.45,-84.01 -224.8,-127.16 -358.78,-127.16 -163.48,0 -299.72,59.05 -410.99,177.12 -109,120.35 -163.49,267.94 -163.49,447.32 0,179.39 54.49,326.99 163.49,445.07 111.27,120.34 247.51,179.38 410.99,179.38 133.98,0 254.33,-43.15 358.78,-127.17"
         style="fill:#2c3a92;fill-opacity:1;fill-rule:nonzero;stroke:none"
         transform="matrix(0.13333333,0,0,-0.13333333,0,522.41333)" />
      <path
         id="path4"
         d="m 6424.85,3182 h 283.85 v -143.06 c 86.28,118.08 204.37,177.12 354.22,177.12 133.98,0 242.97,-43.15 331.52,-131.7 88.56,-88.56 133.98,-197.55 133.98,-329.25 v -753.87 h -283.84 v 674.39 c 0,154.41 -113.54,270.22 -265.67,270.22 -154.41,0 -270.21,-115.81 -270.21,-270.22 V 2001.24 H 6424.85 V 3182"
         style="fill:#2c3a92;fill-opacity:1;fill-rule:nonzero;stroke:none"
         transform="matrix(0.13333333,0,0,-0.13333333,0,522.41333)" />
      <path
         id="path5"
         d="m 8336.7,2932.22 c -88.57,0 -165.77,-31.79 -227.08,-97.64 -61.31,-65.84 -90.83,-145.32 -90.83,-242.97 0,-97.63 29.52,-177.11 90.83,-242.96 61.31,-65.84 138.51,-97.64 227.08,-97.64 88.56,0 163.48,31.8 224.79,97.64 61.31,65.85 93.11,145.33 93.11,242.96 0,97.65 -31.8,177.13 -93.11,242.97 -61.31,65.85 -136.23,97.64 -224.79,97.64 z m 322.43,156.67 V 3182 H 8940.7 V 2033.02 c 0,-163.48 -56.78,-299.73 -170.3,-410.99 -113.53,-111.26 -252.04,-165.77 -415.55,-165.77 -129.43,0 -247.5,34.07 -354.22,102.19 -106.72,65.85 -181.66,149.86 -222.53,252.05 l 283.84,81.74 c 43.15,-88.56 158.95,-154.41 283.83,-154.41 88.57,0 161.22,29.53 222.53,86.29 61.31,56.77 90.83,124.89 90.83,208.9 v 61.31 c -104.46,-84.01 -224.79,-127.16 -358.77,-127.16 -163.48,0 -299.73,59.05 -411,177.12 -108.99,120.35 -163.48,267.94 -163.48,447.32 0,179.39 54.49,326.99 163.48,445.07 111.27,120.34 247.52,179.38 411,179.38 133.98,0 254.31,-43.15 358.77,-127.17"
         style="fill:#2c3a92;fill-opacity:1;fill-rule:nonzero;stroke:none"
         transform="matrix(0.13333333,0,0,-0.13333333,0,522.41333)" />
      <path
         id="path6"
         d="m 9181.31,3182 h 283.83 v -672.13 c 0,-154.4 113.54,-272.48 267.95,-272.48 152.13,0 267.91,118.08 267.91,272.48 V 3182 h 283.9 V 2001.24 H 10001 v 143.05 c -86.25,-118.07 -204.34,-177.12 -354.2,-177.12 -133.98,0 -245.23,43.15 -333.79,131.71 -88.57,88.56 -131.7,197.55 -131.7,329.25 V 3182"
         style="fill:#2c3a92;fill-opacity:1;fill-rule:nonzero;stroke:none"
         transform="matrix(0.13333333,0,0,-0.13333333,0,522.41333)" />
      <path
         id="path7"
         d="m 11093.1,2932.22 c -88.5,0 -165.7,-31.79 -227,-97.64 -61.3,-65.84 -90.9,-145.32 -90.9,-242.97 0,-97.63 29.6,-177.11 90.9,-242.96 61.3,-65.84 138.5,-97.64 227,-97.64 88.6,0 163.5,31.8 224.8,97.64 61.3,65.85 93.1,145.33 93.1,242.96 0,97.65 -31.8,177.13 -93.1,242.97 -61.3,65.85 -136.2,97.64 -224.8,97.64 z m 322.5,156.67 V 3182 h 281.5 V 2001.24 h -281.5 v 93.09 c -104.5,-84.01 -224.8,-127.16 -358.8,-127.16 -163.5,0 -299.7,59.05 -411,177.12 -109,120.35 -163.5,267.94 -163.5,447.32 0,179.39 54.5,326.99 163.5,445.07 111.3,120.34 247.5,179.38 411,179.38 134,0 254.3,-43.15 358.8,-127.17"
         style="fill:#2c3a92;fill-opacity:1;fill-rule:nonzero;stroke:none"
         transform="matrix(0.13333333,0,0,-0.13333333,0,522.41333)" />
      <path
         id="path8"
         d="m 12505.4,2932.22 c -88.5,0 -165.7,-31.79 -227.1,-97.64 -61.3,-65.84 -90.8,-145.32 -90.8,-242.97 0,-97.63 29.5,-177.11 90.8,-242.96 61.4,-65.84 138.6,-97.64 227.1,-97.64 88.6,0 163.5,31.8 224.8,97.64 61.3,65.85 93.1,145.33 93.1,242.96 0,97.65 -31.8,177.13 -93.1,242.97 -61.3,65.85 -136.2,97.64 -224.8,97.64 z m 322.5,156.67 V 3182 h 281.5 V 2033.02 c 0,-163.48 -56.7,-299.73 -170.3,-410.99 -113.5,-111.26 -252,-165.77 -415.5,-165.77 -129.4,0 -247.5,34.07 -354.2,102.19 -106.8,65.85 -181.7,149.86 -222.6,252.05 l 283.9,81.74 c 43.1,-88.56 158.9,-154.41 283.8,-154.41 88.6,0 161.2,29.53 222.5,86.29 61.3,56.77 90.9,124.89 90.9,208.9 v 61.31 c -104.5,-84.01 -224.8,-127.16 -358.8,-127.16 -163.5,0 -299.7,59.05 -411,177.12 -109,120.35 -163.5,267.94 -163.5,447.32 0,179.39 54.5,326.99 163.5,445.07 111.3,120.34 247.5,179.38 411,179.38 134,0 254.3,-43.15 358.8,-127.17"
         style="fill:#2c3a92;fill-opacity:1;fill-rule:nonzero;stroke:none"
         transform="matrix(0.13333333,0,0,-0.13333333,0,522.41333)" />
      <path
         id="path9"
         d="m 14253.8,2707.43 c -45.5,147.59 -177.2,247.5 -331.6,247.5 -147.6,0 -277,-99.91 -320.1,-247.5 z m -654,-220.27 c 43.1,-154.4 179.4,-258.86 345.1,-258.86 115.8,0 208.9,40.88 277.1,124.89 l 274.7,-79.47 c -109,-188.47 -313.3,-306.55 -551.8,-306.55 -181.6,0 -333.8,59.05 -456.4,177.12 -120.3,120.35 -181.6,267.94 -181.6,447.32 0,179.39 59,326.99 177.1,445.07 120.3,120.34 267.9,179.38 442.8,179.38 174.8,0 322.4,-59.04 440.5,-179.38 120.3,-120.36 179.4,-267.94 179.4,-445.07 0,-24.97 -2.3,-59.03 -9.1,-104.45 h -937.8"
         style="fill:#2c3a92;fill-opacity:1;fill-rule:nonzero;stroke:none"
         transform="matrix(0.13333333,0,0,-0.13333333,0,522.41333)" />
      <path
         id="path10"
         d="M 3752.42,20.7695 V 1636.09 h 152.3 L 4592.38,438.449 5282.36,1636.09 h 152.3 V 20.7695 h -152.3 V 1347.64 L 4643.15,233.07 h -99.22 L 3904.72,1345.33 V 20.7695 h -152.3"
         style="fill:#2c3a92;fill-opacity:1;fill-rule:nonzero;stroke:none"
         transform="matrix(0.13333333,0,0,-0.13333333,0,522.41333)" />
      <path
         id="path11"
         d="m 5903.08,620.75 c 0,-136.148 43.85,-251.539 133.85,-341.531 90,-89.989 203.07,-136.137 339.22,-136.137 136.15,0 246.92,46.148 336.92,136.137 89.99,89.992 136.14,205.383 136.14,341.531 0,136.148 -46.15,251.52 -136.14,341.52 -90,90 -200.77,136.15 -336.92,136.15 -136.15,0 -249.22,-46.15 -339.22,-136.15 -90,-90 -133.85,-205.372 -133.85,-341.52 z m 30.01,443.06 c 117.68,117.68 265.37,177.68 443.06,177.68 177.68,0 325.38,-60 443.06,-177.68 117.7,-117.689 177.69,-265.38 177.69,-443.06 0,-177.691 -59.99,-325.379 -177.69,-443.059 C 6701.53,60 6553.83,0 6376.15,0 6198.46,0 6050.77,60 5933.09,177.691 5815.4,295.371 5755.4,443.059 5755.4,620.75 c 0,177.68 60,325.371 177.69,443.06"
         style="fill:#2c3a92;fill-opacity:1;fill-rule:nonzero;stroke:none"
         transform="matrix(0.13333333,0,0,-0.13333333,0,522.41333)" />
      <path
         id="path12"
         d="m 7296.86,1220.72 h 143.08 V 987.648 c 94.61,168.462 249.22,253.842 461.53,253.842 140.75,0 256.13,-46.15 348.43,-138.45 94.63,-92.31 140.78,-207.688 140.78,-346.142 V 20.7695 H 8247.6 V 724.59 c 0,108.449 -36.92,198.449 -110.77,269.98 -71.53,71.54 -161.53,108.47 -269.98,108.47 -120,0 -221.54,-36.93 -304.6,-110.77 -80.77,-73.84 -122.31,-166.149 -122.31,-274.598 V 20.7695 H 7296.86 V 1220.72"
         style="fill:#2c3a92;fill-opacity:1;fill-rule:nonzero;stroke:none"
         transform="matrix(0.13333333,0,0,-0.13333333,0,522.41333)" />
      <path
         id="path13"
         d="m 9396.76,948.422 c -25.4,99.228 -133.84,166.158 -283.84,166.158 -149.98,0 -265.38,-76.16 -265.38,-186.92 0,-78.461 46.15,-133.851 140.77,-168.461 l 316.15,-113.07 C 9472.9,583.82 9558.29,482.289 9558.29,339.219 9558.29,235.379 9516.74,152.301 9433.68,90 9352.91,30 9246.77,0 9119.84,0 8877.54,0 8709.09,115.379 8674.47,293.07 l 136.15,25.379 C 8836,205.379 8956,129.23 9124.46,129.23 c 168.46,0 295.38,85.379 295.38,205.372 0,85.378 -57.69,147.687 -170.77,186.918 l -306.91,110.769 c -154.61,57.691 -233.07,154.602 -233.07,286.141 0,203.07 173.06,323.06 415.37,323.06 219.22,0 371.51,-106.15 406.13,-265.381 l -133.83,-27.687"
         style="fill:#2c3a92;fill-opacity:1;fill-rule:nonzero;stroke:none"
         transform="matrix(0.13333333,0,0,-0.13333333,0,522.41333)" />
      <path
         id="path14"
         d="m 9719.8,1220.72 h 205.37 v 242.3 h 143.13 v -242.3 h 355.3 V 1091.5 h -355.3 V 373.832 c 0,-122.301 78.4,-214.613 186.9,-214.613 h 166.1 V 20.7695 h -175.4 c -90,0 -166.1,32.3125 -228.4,96.9215 -62.32,66.918 -92.33,147.68 -92.33,242.297 V 1091.5 H 9719.8 v 129.22"
         style="fill:#2c3a92;fill-opacity:1;fill-rule:nonzero;stroke:none"
         transform="matrix(0.13333333,0,0,-0.13333333,0,522.41333)" />
      <path
         id="path15"
         d="m 11690.5,696.898 c -16.2,119.993 -69.2,219.223 -156.9,295.372 -85.4,76.15 -189.3,115.38 -309.3,115.38 -120,0 -223.8,-39.23 -309.2,-115.38 -85.4,-76.149 -136.1,-175.379 -152.3,-295.372 z m -930,-120 c 9.2,-126.91 60,-233.066 150,-318.449 92.3,-83.07 205.4,-124.609 336.9,-124.609 166.2,0 311.5,76.148 396.9,203.07 l 138.5,-46.148 C 11674.3,108.449 11478.2,0 11247.4,0 c -182.3,0 -332.3,60 -452.3,177.691 -120,117.68 -180,265.368 -180,443.059 0,177.68 57.7,325.371 175.4,443.06 117.7,117.68 263.1,177.68 436.1,177.68 173.1,0 318.5,-60 436.2,-177.68 117.7,-117.689 175.4,-265.38 175.4,-443.06 0,-20.77 0,-34.609 -2.3,-43.852 h -1075.4"
         style="fill:#2c3a92;fill-opacity:1;fill-rule:nonzero;stroke:none"
         transform="matrix(0.13333333,0,0,-0.13333333,0,522.41333)" />
      <path
         id="path16"
         d="m 12265,20.7695 h -143 V 1220.72 h 143 V 985.352 c 92.3,170.758 247,256.138 461.6,256.138 h 34.6 v -156.92 c -18.5,6.93 -41.6,9.23 -69.2,9.23 -120.1,0 -221.6,-36.92 -304.7,-110.769 -80.7,-73.84 -122.3,-166.14 -122.3,-274.601 V 20.7695"
         style="fill:#2c3a92;fill-opacity:1;fill-rule:nonzero;stroke:none"
         transform="matrix(0.13333333,0,0,-0.13333333,0,522.41333)" />
      <path
         id="path17"
         d="m 1494.16,2294.49 c 68.43,0 123.73,55.57 123.73,123.74 0,68.43 -55.3,123.73 -123.73,123.73 -68.17,0 -123.75,-55.3 -123.75,-123.73 0,-68.17 55.58,-123.74 123.75,-123.74"
         style="fill:#603b9f;fill-opacity:1;fill-rule:nonzero;stroke:none"
         transform="matrix(0.13333333,0,0,-0.13333333,0,522.41333)" />
      <path
         id="path18"
         d="m 1919.56,2294.49 c 68.17,0 123.19,55.57 123.19,123.74 0,68.43 -55.02,123.73 -123.19,123.73 -68.44,0 -123.73,-55.3 -123.73,-123.73 0,-68.17 55.29,-123.74 123.73,-123.74"
         style="fill:#603b9f;fill-opacity:1;fill-rule:nonzero;stroke:none"
         transform="matrix(0.13333333,0,0,-0.13333333,0,522.41333)" />
      <path
         id="path19"
         d="m 2344.42,2294.49 c 68.16,0 123.74,55.57 123.74,123.74 0,68.43 -55.58,123.73 -123.74,123.73 -67.88,0 -123.18,-55.3 -123.18,-123.73 0,-68.17 55.3,-123.74 123.18,-123.74"
         style="fill:#603b9f;fill-opacity:1;fill-rule:nonzero;stroke:none"
         transform="matrix(0.13333333,0,0,-0.13333333,0,522.41333)" />
      <path
         id="path20"
         d="m 2836.92,2295.82 c -0.86,1.99 -1.71,3.32 -2.47,4.65 -46.26,-116.02 -116.11,-220.85 -202.84,-307.96 -166.44,-166.15 -395.82,-268.81 -649.38,-268.81 h -407.09 l -509.37,-270.99 -1.43,-0.56 6.83,1221.49 c 0.57,101.04 17.81,201.51 53.74,295.91 0.48,0.86 0.48,1.33 0.76,2.47 14.5,37.25 31,72.79 49.86,107.3 C 891.934,3016.38 638.09,2873.16 439.43,2674.96 168.148,2403.4 0,2028.44 0,1614.23 0,785.621 671.84,113.789 1500.45,113.789 H 3000.89 V 1614.23 c 0,245.59 -59.14,476.86 -163.97,681.59"
         style="fill:#603b9f;fill-opacity:1;fill-rule:nonzero;stroke:none"
         transform="matrix(0.13333333,0,0,-0.13333333,0,522.41333)" />
      <path
         id="path21"
         d="m 2680.87,3236.55 c 48.9,212.5 15.96,532.57 -320.64,681.51 9.95,-9.95 95.1,-228.27 25.72,-452.13 -121.88,59.73 -258.82,93.28 -403.7,93.28 -103.11,0 -202.07,-17.34 -294.58,-48.65 -46.36,207.38 28.31,398.22 37.6,407.5 -284.85,-126.04 -352.31,-374.81 -336.7,-577.12 -86.08,-73.14 -158.77,-161.55 -213.06,-261.6 104.58,22.99 213.25,35.03 324.94,35.03 414.18,0 789.22,-168.08 1061.06,-439.36 109.22,-109.23 202.03,-235.7 272.93,-374.49 7.38,17.79 13.95,36.13 19.97,54.47 29.85,90.07 45.72,186.7 45.72,286.89 0,226.96 -82.86,434.41 -219.26,594.67"
         style="fill:#739dd8;fill-opacity:1;fill-rule:nonzero;stroke:none"
         transform="matrix(0.13333333,0,0,-0.13333333,0,522.41333)" />
    </g>
  </g>
</svg>
